<?xml version="1.0" encoding="utf-8"?>
<!-- Generator: Adobe Illustrator 20.1.0, SVG Export Plug-In . SVG Version: 6.00 Build 0)  -->
<svg version="1.1" id="Layer_1" xmlns="http://www.w3.org/2000/svg" xmlns:xlink="http://www.w3.org/1999/xlink" x="0px" y="0px"
	 viewBox="0 0 792 612" style="enable-background:new 0 0 792 612;" xml:space="preserve">
<style type="text/css">
	.st0{fill:none;stroke:#000000;stroke-miterlimit:10;}
	.st1{font-family:'MyriadPro-Regular';}
	.st2{font-size:10.0523px;}
	.st3{fill:none;stroke:#404040;stroke-width:2;stroke-linecap:round;stroke-miterlimit:10;}
	.st4{fill:none;stroke:#808080;stroke-width:2;stroke-linecap:round;stroke-miterlimit:10;}
	.st5{fill:none;stroke:#DFDFDF;stroke-width:2;stroke-linecap:round;stroke-miterlimit:10;}
	.st6{fill:none;stroke:#000000;stroke-width:2;stroke-linecap:round;stroke-miterlimit:10;}
	.st7{fill:#404040;stroke:#000000;stroke-width:0.5;stroke-miterlimit:10;}
	.st8{fill:#808080;stroke:#000000;stroke-width:0.5;stroke-miterlimit:10;}
	.st9{fill:#DFDFDF;stroke:#000000;stroke-width:0.5;stroke-miterlimit:10;}
	.st10{stroke:#000000;stroke-width:0.5;stroke-miterlimit:10;}
	.st11{fill:none;stroke:#000000;stroke-width:0.25;stroke-miterlimit:10;}
	.st12{fill:none;stroke:#000000;stroke-width:0.5;stroke-miterlimit:10;}
</style>
<g>
	<g>
		<circle class="st0" cx="239.1" cy="302.3" r="136.2"/>
		<g>
			<g>
				<line class="st0" x1="239.1" y1="166.1" x2="239.1" y2="172.9"/>
				<line class="st0" x1="287.9" y1="175.1" x2="285.5" y2="181.5"/>
				<line class="st0" x1="330.2" y1="201.1" x2="325.7" y2="206.1"/>
				<line class="st0" x1="360.5" y1="240.4" x2="354.4" y2="243.5"/>
				<line class="st0" x1="374.6" y1="288" x2="367.8" y2="288.8"/>
				<line class="st0" x1="370.7" y1="337.5" x2="364.1" y2="335.8"/>
				<line class="st0" x1="347.9" y1="384.3" x2="342.4" y2="380.2"/>
				<line class="st0" x1="311.3" y1="417.8" x2="307.7" y2="412"/>
				<line class="st0" x1="265.1" y1="436" x2="263.8" y2="429.3"/>
				<line class="st0" x1="215.4" y1="436.4" x2="216.6" y2="429.7"/>
				<line class="st0" x1="168.9" y1="419.1" x2="172.4" y2="413.2"/>
				<line class="st0" x1="131.7" y1="386.2" x2="137.1" y2="382"/>
				<line class="st0" x1="108.1" y1="339.8" x2="114.7" y2="338"/>
				<line class="st0" x1="103.4" y1="290.4" x2="110.2" y2="291"/>
				<line class="st0" x1="116.7" y1="242.6" x2="122.8" y2="245.6"/>
				<line class="st0" x1="146.2" y1="202.7" x2="150.8" y2="207.6"/>
				<line class="st0" x1="188.1" y1="176" x2="190.6" y2="182.3"/>
			</g>
			<g>
			</g>
		</g>
	</g>
	<g>
		<g>
			<text transform="matrix(1 0 0 1 250.0528 278.8127)" class="st1 st2">200</text>
			<text transform="matrix(1 0 0 1 250.0528 251.5676)" class="st1 st2">400</text>
			<text transform="matrix(1 0 0 1 250.0528 224.3225)" class="st1 st2">600</text>
			<text transform="matrix(1 0 0 1 250.0528 197.0774)" class="st1 st2">800</text>
			<text transform="matrix(1 0 0 1 250.0528 169.8323)" class="st1 st2">1000</text>
		</g>
		<line class="st0" x1="239.1" y1="302.3" x2="239.1" y2="166.1"/>
		<g>
			<g>
				<line class="st0" x1="235.7" y1="275" x2="242.5" y2="275"/>
				<line class="st0" x1="235.7" y1="247.8" x2="242.5" y2="247.8"/>
				<line class="st0" x1="235.7" y1="220.6" x2="242.5" y2="220.6"/>
				<line class="st0" x1="235.7" y1="193.3" x2="242.5" y2="193.3"/>
			</g>
			<g>
			</g>
		</g>
	</g>
	<g>
		<line class="st0" x1="239.1" y1="302.3" x2="287.9" y2="175.1"/>
		<g>
			<g>
				<line class="st0" x1="245.7" y1="275.6" x2="252" y2="278.1"/>
				<line class="st0" x1="255.4" y1="250.2" x2="261.8" y2="252.6"/>
				<line class="st0" x1="265.2" y1="224.8" x2="271.6" y2="227.2"/>
				<line class="st0" x1="275" y1="199.3" x2="281.3" y2="201.8"/>
			</g>
			<g>
			</g>
		</g>
	</g>
	<g>
		<line class="st0" x1="239.1" y1="302.3" x2="330.2" y2="201.1"/>
		<g>
			<g>
				<line class="st0" x1="254.8" y1="279.8" x2="259.9" y2="284.3"/>
				<line class="st0" x1="273" y1="259.5" x2="278.1" y2="264.1"/>
				<line class="st0" x1="291.3" y1="239.3" x2="296.3" y2="243.8"/>
				<line class="st0" x1="309.5" y1="219" x2="314.5" y2="223.6"/>
			</g>
			<g>
			</g>
		</g>
	</g>
	<g>
		<line class="st0" x1="239.1" y1="302.3" x2="360.5" y2="240.4"/>
		<g>
			<g>
				<line class="st0" x1="261.8" y1="286.9" x2="264.9" y2="293"/>
				<line class="st0" x1="286.1" y1="274.5" x2="289.2" y2="280.6"/>
				<line class="st0" x1="310.4" y1="262.1" x2="313.5" y2="268.2"/>
				<line class="st0" x1="334.6" y1="249.8" x2="337.7" y2="255.8"/>
			</g>
			<g>
			</g>
		</g>
	</g>
	<g>
		<line class="st0" x1="239.1" y1="302.3" x2="374.6" y2="288"/>
		<g>
			<g>
				<line class="st0" x1="265.8" y1="296.1" x2="266.5" y2="302.8"/>
				<line class="st0" x1="292.9" y1="293.2" x2="293.6" y2="300"/>
				<line class="st0" x1="320" y1="290.4" x2="320.7" y2="297.1"/>
				<line class="st0" x1="347.1" y1="287.5" x2="347.8" y2="294.3"/>
			</g>
			<g>
			</g>
		</g>
	</g>
	<g>
		<line class="st0" x1="239.1" y1="302.3" x2="370.7" y2="337.5"/>
		<g>
			<g>
				<line class="st0" x1="266.3" y1="306" x2="264.5" y2="312.6"/>
				<line class="st0" x1="292.6" y1="313.1" x2="290.8" y2="319.7"/>
				<line class="st0" x1="318.9" y1="320.2" x2="317.2" y2="326.7"/>
				<line class="st0" x1="345.2" y1="327.2" x2="343.5" y2="333.8"/>
			</g>
			<g>
			</g>
		</g>
	</g>
	<g>
		<line class="st0" x1="239.1" y1="302.3" x2="347.9" y2="384.3"/>
		<g>
			<g>
				<line class="st0" x1="262.9" y1="316" x2="258.8" y2="321.4"/>
				<line class="st0" x1="284.7" y1="332.4" x2="280.6" y2="337.8"/>
				<line class="st0" x1="306.4" y1="348.8" x2="302.3" y2="354.2"/>
				<line class="st0" x1="328.2" y1="365.2" x2="324.1" y2="370.6"/>
			</g>
			<g>
			</g>
		</g>
	</g>
	<g>
		<line class="st0" x1="239.1" y1="302.3" x2="311.3" y2="417.8"/>
		<g>
			<g>
				<line class="st0" x1="256.4" y1="323.6" x2="250.6" y2="327.2"/>
				<line class="st0" x1="270.9" y1="346.7" x2="265.1" y2="350.3"/>
				<line class="st0" x1="285.3" y1="369.8" x2="279.5" y2="373.4"/>
				<line class="st0" x1="299.7" y1="392.9" x2="294" y2="396.5"/>
			</g>
			<g>
			</g>
		</g>
	</g>
	<g>
		<line class="st0" x1="239.1" y1="302.3" x2="265.1" y2="436"/>
		<g>
			<g>
				<line class="st0" x1="247.6" y1="328.4" x2="240.9" y2="329.7"/>
				<line class="st0" x1="252.8" y1="355.1" x2="246.1" y2="356.4"/>
				<line class="st0" x1="258" y1="381.9" x2="161.5" y2="328.1"/>
				<line class="st0" x1="263.2" y1="408.6" x2="256.5" y2="409.9"/>
			</g>
			<g>
			</g>
		</g>
	</g>
	<g>
		<line class="st0" x1="239.1" y1="302.3" x2="215.4" y2="436.4"/>
		<g>
			<g>
				<line class="st0" x1="237.7" y1="329.7" x2="231" y2="328.5"/>
				<line class="st0" x1="233" y1="356.5" x2="226.3" y2="355.4"/>
				<line class="st0" x1="228.3" y1="383.4" x2="221.5" y2="382.2"/>
				<line class="st0" x1="223.5" y1="410.2" x2="216.8" y2="409"/>
			</g>
			<g>
			</g>
		</g>
	</g>
	<g>
		<line class="st0" x1="239.1" y1="302.3" x2="168.9" y2="419.1"/>
		<g>
			<g>
				<line class="st0" x1="228" y1="327.4" x2="222.1" y2="323.9"/>
				<line class="st0" x1="213.9" y1="350.7" x2="208.1" y2="347.2"/>
				<line class="st0" x1="199.9" y1="374.1" x2="194.1" y2="370.6"/>
				<line class="st0" x1="185.9" y1="397.5" x2="180" y2="393.9"/>
			</g>
			<g>
			</g>
		</g>
	</g>
	<g>
		<line class="st0" x1="239.1" y1="302.3" x2="131.7" y2="386.2"/>
		<g>
			<g>
				<line class="st0" x1="219.7" y1="321.7" x2="215.5" y2="316.4"/>
				<line class="st0" x1="198.3" y1="338.5" x2="194.1" y2="333.2"/>
				<line class="st0" x1="176.8" y1="355.3" x2="172.6" y2="349.9"/>
				<line class="st0" x1="155.3" y1="372.1" x2="151.1" y2="366.7"/>
			</g>
			<g>
			</g>
		</g>
	</g>
	<g>
		<line class="st0" x1="239.1" y1="302.3" x2="108.1" y2="339.8"/>
		<g>
			<g>
				<line class="st0" x1="213.8" y1="313.1" x2="212" y2="306.5"/>
				<line class="st0" x1="187.7" y1="320.6" x2="185.8" y2="314"/>
				<line class="st0" x1="161.5" y1="328.1" x2="159.6" y2="321.5"/>
				<line class="st0" x1="135.3" y1="335.6" x2="133.4" y2="329.1"/>
			</g>
			<g>
			</g>
		</g>
	</g>
	<g>
		<line class="st0" x1="239.1" y1="302.3" x2="103.4" y2="290.4"/>
		<g>
			<g>
				<line class="st0" x1="211.7" y1="303.3" x2="212.2" y2="296.5"/>
				<line class="st0" x1="184.5" y1="300.9" x2="185.1" y2="294.1"/>
				<line class="st0" x1="157.4" y1="298.6" x2="158" y2="291.8"/>
				<line class="st0" x1="130.2" y1="296.2" x2="130.8" y2="289.4"/>
			</g>
			<g>
			</g>
		</g>
	</g>
	<g>
		<line class="st0" x1="239.1" y1="302.3" x2="116.7" y2="242.6"/>
		<g>
			<g>
				<line class="st0" x1="213.1" y1="293.4" x2="216.1" y2="287.3"/>
				<line class="st0" x1="188.6" y1="281.5" x2="191.6" y2="275.3"/>
				<line class="st0" x1="164.1" y1="269.5" x2="167.1" y2="263.4"/>
				<line class="st0" x1="139.7" y1="257.6" x2="142.6" y2="251.5"/>
			</g>
			<g>
			</g>
		</g>
	</g>
	<g>
		<line class="st0" x1="239.1" y1="302.3" x2="146.2" y2="202.7"/>
		<g>
			<g>
				<line class="st0" x1="218" y1="284.7" x2="223" y2="280"/>
				<line class="st0" x1="199.4" y1="264.8" x2="204.4" y2="260.1"/>
				<line class="st0" x1="180.9" y1="244.8" x2="185.8" y2="240.2"/>
				<line class="st0" x1="162.3" y1="224.9" x2="167.3" y2="220.3"/>
			</g>
			<g>
			</g>
		</g>
	</g>
	<g>
		<line class="st0" x1="239.1" y1="302.3" x2="188.1" y2="176"/>
		<g>
			<g>
				<line class="st0" x1="225.7" y1="278.3" x2="232" y2="275.8"/>
				<line class="st0" x1="215.5" y1="253" x2="221.8" y2="250.5"/>
				<line class="st0" x1="205.3" y1="227.8" x2="211.6" y2="225.2"/>
				<line class="st0" x1="195.1" y1="202.5" x2="201.4" y2="200"/>
			</g>
			<g>
			</g>
		</g>
	</g>
	<g>
		<g>
			<g>
				<line class="st3" x1="268.4" y1="226" x2="239.1" y2="302.3"/>
				<line class="st3" x1="302.9" y1="231.4" x2="268.4" y2="226"/>
				<line class="st3" x1="336.2" y1="252.8" x2="302.9" y2="231.4"/>
				<line class="st3" x1="239.1" y1="302.3" x2="336.2" y2="252.8"/>
				<line class="st3" x1="239.1" y1="302.3" x2="239.1" y2="302.3"/>
				<line class="st3" x1="239.1" y1="302.3" x2="239.1" y2="302.3"/>
				<line class="st3" x1="239.1" y1="302.3" x2="239.1" y2="302.3"/>
				<line class="st3" x1="239.1" y1="302.3" x2="239.1" y2="302.3"/>
				<line class="st3" x1="239.1" y1="302.3" x2="239.1" y2="302.3"/>
				<line class="st3" x1="239.1" y1="302.3" x2="239.1" y2="302.3"/>
				<line class="st3" x1="239.1" y1="302.3" x2="239.1" y2="302.3"/>
				<line class="st3" x1="239.1" y1="302.3" x2="239.1" y2="302.3"/>
				<line class="st3" x1="239.1" y1="302.3" x2="239.1" y2="302.3"/>
				<line class="st3" x1="239.1" y1="302.3" x2="239.1" y2="302.3"/>
				<line class="st3" x1="239.1" y1="302.3" x2="239.1" y2="302.3"/>
				<line class="st3" x1="239.1" y1="302.3" x2="239.1" y2="302.3"/>
				<line class="st3" x1="239.1" y1="302.3" x2="239.1" y2="302.3"/>
			</g>
		</g>
		<g>
			<g>
				<line class="st4" x1="240.3" y1="299.1" x2="239.1" y2="299"/>
				<line class="st4" x1="241.2" y1="300" x2="240.3" y2="299.1"/>
				<line class="st4" x1="242.1" y1="300.7" x2="241.2" y2="300"/>
				<line class="st4" x1="239.1" y1="302.3" x2="242.1" y2="300.7"/>
				<line class="st4" x1="242.6" y1="303.2" x2="239.1" y2="302.3"/>
				<line class="st4" x1="239.1" y1="302.3" x2="242.6" y2="303.2"/>
				<line class="st4" x1="239.1" y1="302.3" x2="239.1" y2="302.3"/>
				<line class="st4" x1="239.1" y1="302.3" x2="239.1" y2="302.3"/>
				<line class="st4" x1="239.1" y1="302.3" x2="239.1" y2="302.3"/>
				<line class="st4" x1="239.1" y1="302.3" x2="239.1" y2="302.3"/>
				<line class="st4" x1="239.1" y1="302.3" x2="239.1" y2="302.3"/>
				<line class="st4" x1="239.1" y1="302.3" x2="239.1" y2="302.3"/>
				<line class="st4" x1="239.1" y1="302.3" x2="239.1" y2="302.3"/>
				<line class="st4" x1="239.1" y1="302.3" x2="239.1" y2="302.3"/>
				<line class="st4" x1="239.1" y1="302.3" x2="239.1" y2="302.3"/>
				<line class="st4" x1="239.1" y1="302.3" x2="239.1" y2="302.3"/>
				<line class="st4" x1="239.1" y1="299" x2="239.1" y2="302.3"/>
			</g>
		</g>
		<g>
			<g>
				<line class="st5" x1="241.3" y1="296.6" x2="239.1" y2="302.3"/>
				<line class="st5" x1="266.4" y1="271.9" x2="241.3" y2="296.6"/>
				<line class="st5" x1="239.1" y1="302.3" x2="266.4" y2="271.9"/>
				<line class="st5" x1="242.2" y1="302" x2="239.1" y2="302.3"/>
				<line class="st5" x1="246.2" y1="304.2" x2="242.2" y2="302"/>
				<line class="st5" x1="247" y1="308.3" x2="246.2" y2="304.2"/>
				<line class="st5" x1="240" y1="303.7" x2="247" y2="308.3"/>
				<line class="st5" x1="239.9" y1="306.6" x2="240" y2="303.7"/>
				<line class="st5" x1="238.8" y1="303.9" x2="239.9" y2="306.6"/>
				<line class="st5" x1="238.2" y1="303.8" x2="238.8" y2="303.9"/>
				<line class="st5" x1="237.6" y1="303.5" x2="238.2" y2="303.8"/>
				<line class="st5" x1="237.1" y1="302.9" x2="237.6" y2="303.5"/>
				<line class="st5" x1="239" y1="302.3" x2="237.1" y2="302.9"/>
				<line class="st5" x1="238.4" y1="301.9" x2="239" y2="302.3"/>
				<line class="st5" x1="237.5" y1="300.6" x2="238.4" y2="301.9"/>
				<line class="st5" x1="238.2" y1="300" x2="237.5" y2="300.6"/>
				<line class="st5" x1="239.1" y1="302.3" x2="238.2" y2="300"/>
			</g>
		</g>
		<g>
			<g>
				<line class="st6" x1="239.2" y1="302" x2="239.1" y2="302.2"/>
				<line class="st6" x1="239.3" y1="302.1" x2="239.2" y2="302"/>
				<line class="st6" x1="239.5" y1="302.1" x2="239.3" y2="302.1"/>
				<line class="st6" x1="239.6" y1="302.2" x2="239.5" y2="302.1"/>
				<line class="st6" x1="239.9" y1="302.5" x2="239.6" y2="302.2"/>
				<line class="st6" x1="346.7" y1="383.4" x2="239.9" y2="302.5"/>
				<line class="st6" x1="243" y1="308.5" x2="346.7" y2="383.4"/>
				<line class="st6" x1="239.1" y1="302.3" x2="243" y2="308.5"/>
				<line class="st6" x1="239.1" y1="302.3" x2="239.1" y2="302.3"/>
				<line class="st6" x1="239.1" y1="302.3" x2="239.1" y2="302.3"/>
				<line class="st6" x1="239.1" y1="302.3" x2="239.1" y2="302.3"/>
				<line class="st6" x1="239.1" y1="302.3" x2="239.1" y2="302.3"/>
				<line class="st6" x1="239.1" y1="302.3" x2="239.1" y2="302.3"/>
				<line class="st6" x1="239.1" y1="302.3" x2="239.1" y2="302.3"/>
				<line class="st6" x1="239.1" y1="302.3" x2="239.1" y2="302.3"/>
				<line class="st6" x1="239.1" y1="302.3" x2="239.1" y2="302.3"/>
				<line class="st6" x1="239.1" y1="302.2" x2="239.1" y2="302.3"/>
			</g>
		</g>
	</g>
	<g>
		<g>
			<g>
				<rect x="236.1" y="299.3" class="st7" width="6" height="6"/>
				<rect x="265.4" y="223" class="st7" width="6" height="6"/>
				<rect x="299.9" y="228.4" class="st7" width="6" height="6"/>
				<rect x="333.2" y="249.8" class="st7" width="6" height="6"/>
				<rect x="236.1" y="299.3" class="st7" width="6" height="6"/>
				<rect x="236.1" y="299.3" class="st7" width="6" height="6"/>
				<rect x="236.1" y="299.3" class="st7" width="6" height="6"/>
				<rect x="236.1" y="299.3" class="st7" width="6" height="6"/>
				<rect x="236.1" y="299.3" class="st7" width="6" height="6"/>
				<rect x="236.1" y="299.3" class="st7" width="6" height="6"/>
				<rect x="236.1" y="299.3" class="st7" width="6" height="6"/>
				<rect x="236.1" y="299.3" class="st7" width="6" height="6"/>
				<rect x="236.1" y="299.3" class="st7" width="6" height="6"/>
				<rect x="236.1" y="299.3" class="st7" width="6" height="6"/>
				<rect x="236.1" y="299.3" class="st7" width="6" height="6"/>
				<rect x="236.1" y="299.3" class="st7" width="6" height="6"/>
				<rect x="236.1" y="299.3" class="st7" width="6" height="6"/>
			</g>
		</g>
		<g>
			<g>
				<rect x="236.1" y="296" class="st8" width="6" height="6"/>
				<rect x="237.3" y="296.1" class="st8" width="6" height="6"/>
				<rect x="238.2" y="297" class="st8" width="6" height="6"/>
				<rect x="239.1" y="297.7" class="st8" width="6" height="6"/>
				<rect x="236.1" y="299.3" class="st8" width="6" height="6"/>
				<rect x="239.6" y="300.2" class="st8" width="6" height="6"/>
				<rect x="236.1" y="299.3" class="st8" width="6" height="6"/>
				<rect x="236.1" y="299.3" class="st8" width="6" height="6"/>
				<rect x="236.1" y="299.3" class="st8" width="6" height="6"/>
				<rect x="236.1" y="299.3" class="st8" width="6" height="6"/>
				<rect x="236.1" y="299.3" class="st8" width="6" height="6"/>
				<rect x="236.1" y="299.3" class="st8" width="6" height="6"/>
				<rect x="236.1" y="299.3" class="st8" width="6" height="6"/>
				<rect x="236.1" y="299.3" class="st8" width="6" height="6"/>
				<rect x="236.1" y="299.3" class="st8" width="6" height="6"/>
				<rect x="236.1" y="299.3" class="st8" width="6" height="6"/>
				<rect x="236.1" y="299.3" class="st8" width="6" height="6"/>
			</g>
		</g>
		<g>
			<g>
				<rect x="236.1" y="299.3" class="st9" width="6" height="6"/>
				<rect x="238.3" y="293.6" class="st9" width="6" height="6"/>
				<rect x="263.4" y="268.9" class="st9" width="6" height="6"/>
				<rect x="236.1" y="299.3" class="st9" width="6" height="6"/>
				<rect x="239.2" y="299" class="st9" width="6" height="6"/>
				<rect x="243.2" y="301.2" class="st9" width="6" height="6"/>
				<rect x="244" y="305.3" class="st9" width="6" height="6"/>
				<rect x="237" y="300.7" class="st9" width="6" height="6"/>
				<rect x="236.9" y="303.6" class="st9" width="6" height="6"/>
				<rect x="235.8" y="300.9" class="st9" width="6" height="6"/>
				<rect x="235.2" y="300.8" class="st9" width="6" height="6"/>
				<rect x="234.6" y="300.5" class="st9" width="6" height="6"/>
				<rect x="234.1" y="299.9" class="st9" width="6" height="6"/>
				<rect x="236" y="299.3" class="st9" width="6" height="6"/>
				<rect x="235.4" y="298.9" class="st9" width="6" height="6"/>
				<rect x="234.5" y="297.6" class="st9" width="6" height="6"/>
				<rect x="235.2" y="297" class="st9" width="6" height="6"/>
			</g>
		</g>
		<g>
			<g>
				<rect x="236.1" y="299.2" class="st10" width="6" height="6"/>
				<rect x="236.2" y="299" class="st10" width="6" height="6"/>
				<rect x="236.3" y="299.1" class="st10" width="6" height="6"/>
				<rect x="236.5" y="299.1" class="st10" width="6" height="6"/>
				<rect x="236.6" y="299.2" class="st10" width="6" height="6"/>
				<rect x="236.9" y="299.5" class="st10" width="6" height="6"/>
				<rect x="343.7" y="380.4" class="st10" width="6" height="6"/>
				<rect x="240" y="305.5" class="st10" width="6" height="6"/>
				<rect x="236.1" y="299.3" class="st10" width="6" height="6"/>
				<rect x="236.1" y="299.3" class="st10" width="6" height="6"/>
				<rect x="236.1" y="299.3" class="st10" width="6" height="6"/>
				<rect x="236.1" y="299.3" class="st10" width="6" height="6"/>
				<rect x="236.1" y="299.3" class="st10" width="6" height="6"/>
				<rect x="236.1" y="299.3" class="st10" width="6" height="6"/>
				<rect x="236.1" y="299.3" class="st10" width="6" height="6"/>
				<rect x="236.1" y="299.3" class="st10" width="6" height="6"/>
				<rect x="236.1" y="299.3" class="st10" width="6" height="6"/>
			</g>
		</g>
	</g>
</g>
<g>
	<g>
		<path class="st0" d="M352.9,241c0,75.2-90,73.5-166.5,105C75.5,364,20,242.8,20,167.5S115.6,43.9,190.9,43.9
			C282.8,44.7,361.9,71.5,352.9,241z"/>
		<g>
			<g>
				<line class="st0" x1="190.9" y1="43.9" x2="190.9" y2="50.8"/>
			</g>
			<g>
			</g>
		</g>
	</g>
	<g>
		<g>
			<text transform="matrix(1 0 0 1 201.8155 156.6956)" class="st1 st2">0.2</text>
			<text transform="matrix(1 0 0 1 201.8155 129.4505)" class="st1 st2">0.4</text>
			<text transform="matrix(1 0 0 1 201.8155 102.2064)" class="st1 st2">0.6</text>
			<text transform="matrix(1 0 0 1 201.8155 74.9613)" class="st1 st2">0.8</text>
			<text transform="matrix(1 0 0 1 201.8155 47.7162)" class="st1 st2">1.0</text>
		</g>
		<line class="st0" x1="190.9" y1="180.2" x2="190.9" y2="43.9"/>
		<g>
			<g>
				<line class="st0" x1="187.5" y1="152.9" x2="194.3" y2="152.9"/>
				<line class="st0" x1="187.5" y1="125.7" x2="194.3" y2="125.7"/>
				<line class="st0" x1="187.5" y1="98.4" x2="194.3" y2="98.4"/>
				<line class="st0" x1="187.5" y1="71.2" x2="194.3" y2="71.2"/>
			</g>
			<g>
			</g>
		</g>
	</g>
	<g>
		<g>
			<g>
				<line class="st6" x1="190.9" y1="43.9" x2="190.9" y2="43.9"/>
			</g>
		</g>
	</g>
	<g>
		<g>
			<g>
				<rect x="187.9" y="40.9" class="st10" width="6" height="6"/>
			</g>
		</g>
	</g>
</g>
<g>
	<g>
		<path class="st0" d="M295,382.4c-75.2-3.3-69.5-93.1-97.6-170.9C184.3,99.8,307.8,49.7,383,53c78.2,3.4,118.9,108.9,116,176.2
			C494.2,320.9,463.9,398.9,295,382.4z"/>
		<g>
			<g>
				<line class="st0" x1="499" y1="229.2" x2="492.1" y2="228.9"/>
			</g>
			<g>
			</g>
		</g>
	</g>
	<g>
		<g>
			<text transform="matrix(-4.390000e-02 0.999 -0.999 -4.390000e-02 385.779 235.1692)" class="st1 st2">0.2</text>
			<text transform="matrix(-4.390000e-02 0.999 -0.999 -4.390000e-02 412.998 236.3652)" class="st1 st2">0.4</text>
			<text transform="matrix(-4.390000e-02 0.999 -0.999 -4.390000e-02 440.216 237.5613)" class="st1 st2">0.6</text>
			<text transform="matrix(-4.390000e-02 0.999 -0.999 -4.390000e-02 467.4349 238.7573)" class="st1 st2">0.8</text>
			<text transform="matrix(-4.390000e-02 0.999 -0.999 -4.390000e-02 494.6539 239.9534)" class="st1 st2">1.0</text>
		</g>
		<line class="st0" x1="362.9" y1="223.2" x2="499" y2="229.2"/>
		<g>
			<g>
				<line class="st0" x1="390.2" y1="221" x2="389.9" y2="227.8"/>
				<line class="st0" x1="417.4" y1="222.2" x2="417.1" y2="229"/>
				<line class="st0" x1="444.7" y1="223.4" x2="444.4" y2="230.2"/>
				<line class="st0" x1="471.9" y1="224.6" x2="471.6" y2="231.4"/>
			</g>
			<g>
			</g>
		</g>
	</g>
	<g>
		<g>
			<g>
				<line class="st6" x1="499" y1="229.2" x2="499" y2="229.2"/>
			</g>
		</g>
	</g>
	<g>
		<g>
			<g>
				
					<rect x="496" y="226.2" transform="matrix(4.389821e-02 -0.999 0.999 4.389821e-02 248.1172 717.5618)" class="st10" width="6" height="6"/>
			</g>
		</g>
	</g>
</g>
<g>
	<g>
		<path class="st0" d="M142.5,360.1c-4.1-75.1,85.9-78.3,160.6-113.9c109.9-24,171.8,94.1,175.9,169.2
			c4.2,78.1-89,167.6-163.9,132.7C175,467,142.7,529.8,142.5,360.1z"/>
		<g>
			<g>
				<line class="st0" x1="315.1" y1="548.1" x2="314.7" y2="541.3"/>
			</g>
			<g>
			</g>
		</g>
	</g>
	<g>
		<g>
			<text transform="matrix(-0.9985 5.423000e-02 -5.423000e-02 -0.9985 297.9774 436.0717)" class="st1 st2">0.2</text>
			<text transform="matrix(-0.9985 5.423000e-02 -5.423000e-02 -0.9985 299.455 463.2768)" class="st1 st2">0.4</text>
			<text transform="matrix(-0.9985 5.423000e-02 -5.423000e-02 -0.9985 300.9324 490.4809)" class="st1 st2">0.6</text>
			<text transform="matrix(-0.9985 5.423000e-02 -5.423000e-02 -0.9985 302.4099 517.6859)" class="st1 st2">0.8</text>
			<text transform="matrix(-0.9985 5.423000e-02 -5.423000e-02 -0.9985 303.8874 544.891)" class="st1 st2">1.0</text>
		</g>
		<line class="st0" x1="307.7" y1="412" x2="315.1" y2="548.1"/>
		<g>
			<g>
				<line class="st0" x1="312.6" y1="439.1" x2="305.7" y2="439.4"/>
				<line class="st0" x1="314" y1="466.3" x2="307.2" y2="466.6"/>
				<line class="st0" x1="315.5" y1="493.5" x2="308.7" y2="493.8"/>
				<line class="st0" x1="317" y1="520.7" x2="310.2" y2="521"/>
			</g>
			<g>
			</g>
		</g>
	</g>
	<g>
		<g>
			<g>
				<line class="st6" x1="315.1" y1="548.1" x2="315.1" y2="548.1"/>
			</g>
		</g>
	</g>
	<g>
		<g>
			<g>
				
					<rect x="312.1" y="545.1" transform="matrix(0.9985 -5.422846e-02 5.422846e-02 0.9985 -29.2569 17.8917)" class="st10" width="6" height="6"/>
			</g>
		</g>
	</g>
</g>
<circle class="st11" cx="471.8" cy="243.8" r="221.2"/>
<ellipse class="st12" cx="558.8" cy="267.1" rx="213.7" ry="231"/>
<ellipse class="st12" cx="272.3" cy="267.1" rx="213.7" ry="231"/>
<ellipse class="st12" cx="507.8" cy="259.6" rx="213.7" ry="231"/>
<ellipse class="st12" cx="575.7" cy="277.3" rx="202.9" ry="214.3"/>
<ellipse class="st12" cx="527.4" cy="259.6" rx="213.7" ry="231"/>
<ellipse class="st12" cx="285" cy="294" rx="213.7" ry="231"/>
</svg>
