<?xml version="1.0" encoding="utf-8"?>
<!-- Generator: Adobe Illustrator 22.1.0, SVG Export Plug-In . SVG Version: 6.00 Build 0)  -->
<svg version="1.1" id="Layer_1" xmlns="http://www.w3.org/2000/svg" xmlns:xlink="http://www.w3.org/1999/xlink" x="0px" y="0px"
	 viewBox="0 0 500 500" style="enable-background:new 0 0 500 500;" xml:space="preserve">
<style type="text/css">
	.st0{fill:none;stroke:#000000;stroke-width:1.25;}
	.st1{fill:#032104;}
	.st2{display:none;}
	.st3{display:inline;fill:#020202;stroke:#020202;stroke-miterlimit:10;}
</style>
<ellipse class="st0" cx="239" cy="224.5" rx="159" ry="156.5"/>
<image style="overflow:visible;enable-background:new    ;" width="170" height="134" id="Ellipse_4" xlink:href="671E1BC601224485.png"  transform="matrix(1 0 0 1 151 175)">
</image>
<path class="st1" d="M196.9,137c3.3,0,5.9,16,5.9,35.7s-2.6,35.7-5.9,35.7s-5.9-16-5.9-35.7S193.6,137,196.9,137z"/>
<path class="st1" d="M277.1,138.5c3.3,0,5.9,16,5.9,35.7s-2.6,35.7-5.9,35.7s-5.9-16-5.9-35.7S273.8,138.5,277.1,138.5z"/>
<g class="st2">
	<path class="st3" d="M240.3,320.5c-47.1,0-85.3-36.6-85.3-81.5h1.1c0,44.4,37.8,80.5,84.2,80.5V320.5z"/>
	<path class="st3" d="M240.3,320.5v-1c42.8,0,77.5-36.1,77.5-80.5h1.1C319,283.9,283.7,320.5,240.3,320.5z"/>
</g>
</svg>
