<svg id="Layer_1" data-name="Layer 1" xmlns="http://www.w3.org/2000/svg" viewBox="0 0 319.25 314.25"><defs><style>.cls-1{fill:none;stroke:#000;stroke-width:1.25px;}.cls-2{fill:#032104;}.cls-3{fill:#020202;stroke:#020202;stroke-miterlimit:10;}</style></defs><title>smile2</title><ellipse class="cls-1" cx="159.63" cy="157.13" rx="159" ry="156.5"/><path class="cls-2" d="M196.9,137c3.26,0,5.9,16,5.9,35.73s-2.64,35.73-5.9,35.73-5.9-16-5.9-35.73S193.64,137,196.9,137Z" transform="translate(-79.38 -67.38)"/><path class="cls-2" d="M277.1,138.54c3.26,0,5.9,16,5.9,35.73S280.36,210,277.1,210s-5.9-16-5.9-35.73S273.84,138.54,277.1,138.54Z" transform="translate(-79.38 -67.38)"/><path class="cls-3" d="M240.35,320.5C193.29,320.5,155,283.94,155,239h1.12c0,44.39,37.78,80.5,84.23,80.5Z" transform="translate(-79.38 -67.38)"/><path class="cls-3" d="M240.35,320.5v-1c42.75,0,77.53-36.11,77.53-80.5H319C319,283.94,283.72,320.5,240.35,320.5Z" transform="translate(-79.38 -67.38)"/></svg>